<svg width="800" height="1000" viewBox="0 0 800 1000" fill="none" xmlns="http://www.w3.org/2000/svg">
  <rect width="800" height="1000" rx="56" fill="#F8F3E7"/>
  <rect x="174" y="118" width="452" height="724" rx="42" fill="#FFF8EC"/>
  <rect x="216" y="164" width="368" height="248" rx="36" fill="url(#hero)"/>
  <text x="400" y="246" text-anchor="middle" fill="#FFF7E9" font-size="40" font-family="Arial, sans-serif" font-weight="700">AgriAce</text>
  <text x="400" y="310" text-anchor="middle" fill="#FFF4D6" font-size="56" font-family="Arial, sans-serif" font-weight="700">Slow Release</text>
  <text x="400" y="372" text-anchor="middle" fill="#FFF4D6" font-size="56" font-family="Arial, sans-serif" font-weight="700">Granules</text>
  <rect x="240" y="454" width="320" height="72" rx="22" fill="#2F5D31"/>
  <text x="400" y="500" text-anchor="middle" fill="#FFF8EA" font-size="34" font-family="Arial, sans-serif" font-weight="700">Long Lasting Feed</text>
  <g fill="#D49F2A">
    <circle cx="304" cy="626" r="28"/>
    <circle cx="370" cy="656" r="24"/>
    <circle cx="438" cy="622" r="28"/>
    <circle cx="496" cy="662" r="22"/>
    <circle cx="344" cy="708" r="26"/>
    <circle cx="426" cy="720" r="30"/>
  </g>
  <g fill="#5B6D2F" font-family="Arial, sans-serif" font-size="28">
    <text x="236" y="812">Extended nutrient release</text>
    <text x="236" y="864">Reduced application cycle</text>
    <text x="236" y="916">Stable field performance</text>
  </g>
  <g fill="#B98A2C">
    <circle cx="212" cy="802" r="10"/>
    <circle cx="212" cy="854" r="10"/>
    <circle cx="212" cy="906" r="10"/>
  </g>
  <defs>
    <linearGradient id="hero" x1="400" y1="164" x2="400" y2="412" gradientUnits="userSpaceOnUse">
      <stop stop-color="#EAA90C"/>
      <stop offset="1" stop-color="#F0C447"/>
    </linearGradient>
  </defs>
</svg>
