<svg width="800" height="1000" viewBox="0 0 800 1000" fill="none" xmlns="http://www.w3.org/2000/svg">
  <rect width="800" height="1000" rx="56" fill="#F8F3E7"/>
  <rect x="182" y="118" width="436" height="726" rx="40" fill="#FFF9F0"/>
  <rect x="224" y="168" width="352" height="222" rx="36" fill="url(#hero)"/>
  <text x="400" y="246" text-anchor="middle" fill="#FFF7E9" font-size="40" font-family="Arial, sans-serif" font-weight="700">AgriAce</text>
  <text x="400" y="300" text-anchor="middle" fill="#FFF4D6" font-size="62" font-family="Arial, sans-serif" font-weight="700">Liquid</text>
  <text x="400" y="356" text-anchor="middle" fill="#FFF4D6" font-size="62" font-family="Arial, sans-serif" font-weight="700">Nutrients</text>
  <rect x="242" y="432" width="316" height="74" rx="22" fill="#2F5D31"/>
  <text x="400" y="479" text-anchor="middle" fill="#FFF8EA" font-size="34" font-family="Arial, sans-serif" font-weight="700">Rapid Plant Support</text>
  <path d="M400 574C460 522 536 604 490 676C462 720 410 736 400 790C390 736 338 720 310 676C264 604 340 522 400 574Z" fill="#F5C65B"/>
  <path d="M400 604C442 566 496 622 464 674C444 706 407 718 400 756C393 718 356 706 336 674C304 622 358 566 400 604Z" fill="#FFE3A0"/>
  <g fill="#2F5D31" font-family="Arial, sans-serif" font-size="28">
    <text x="246" y="860">Instant results</text>
    <text x="246" y="908">Easy application</text>
  </g>
  <g fill="#B98A2C">
    <circle cx="222" cy="850" r="10"/>
    <circle cx="222" cy="898" r="10"/>
    <circle cx="222" cy="946" r="10"/>
  </g>
  <text x="246" y="956" fill="#2F5D31" font-size="28" font-family="Arial, sans-serif">Concentrated formula</text>
  <defs>
    <linearGradient id="hero" x1="400" y1="168" x2="400" y2="390" gradientUnits="userSpaceOnUse">
      <stop stop-color="#E7A400"/>
      <stop offset="1" stop-color="#F2C12B"/>
    </linearGradient>
  </defs>
</svg>
